<?xml version="1.0" standalone="no"?>
<svg xmlns="http://www.w3.org/2000/svg" width="500" height="500"><defs><clipPath id="clip-path-dot-color"><path d="M 12 164v 19h 19v -9.5a 9.5 9.5, 0, 0, 0, -9.5 -9.5" transform="rotate(-90,21.5,173.5)"/><path d="M 12 183v 19h 9.5a 9.5 9.5, 0, 0, 0, 0 -19" transform="rotate(90,21.5,192.5)"/><path d="M 12 221v 19h 9.5a 9.5 9.5, 0, 0, 0, 0 -19" transform="rotate(-90,21.5,230.5)"/><rect x="12" y="240" width="19" height="19" transform="rotate(0,21.5,249.5)"/><rect x="12" y="259" width="19" height="19" transform="rotate(0,21.5,268.5)"/><rect x="12" y="278" width="19" height="19" transform="rotate(0,21.5,287.5)"/><path d="M 12 297v 19h 19v -9.5a 9.5 9.5, 0, 0, 0, -9.5 -9.5" transform="rotate(180,21.5,306.5)"/><rect x="31" y="164" width="19" height="19" transform="rotate(0,40.5,173.5)"/><path d="M 31 202v 19h 9.5a 9.5 9.5, 0, 0, 0, 0 -19" transform="rotate(180,40.5,211.5)"/><path d="M 31 278v 19h 19v -9.5a 9.5 9.5, 0, 0, 0, -9.5 -9.5" transform="rotate(0,40.5,287.5)"/><rect x="31" y="297" width="19" height="19" transform="rotate(0,40.5,306.5)"/><path d="M 31 316v 19h 19v -9.5a 9.5 9.5, 0, 0, 0, -9.5 -9.5" transform="rotate(180,40.5,325.5)"/><rect x="50" y="164" width="19" height="19" transform="rotate(0,59.5,173.5)"/><rect x="50" y="183" width="19" height="19" transform="rotate(0,59.5,192.5)"/><path d="M 50 202v 19h 19v -9.5a 9.5 9.5, 0, 0, 0, -9.5 -9.5" transform="rotate(90,59.5,211.5)"/><circle cx="59.5" cy="249.5" r="9.5" transform="rotate(0,59.5,249.5)"/><rect x="50" y="297" width="19" height="19" transform="rotate(0,59.5,306.5)"/><path d="M 50 316v 19h 19v -9.5a 9.5 9.5, 0, 0, 0, -9.5 -9.5" transform="rotate(90,59.5,325.5)"/><rect x="69" y="164" width="19" height="19" transform="rotate(0,78.5,173.5)"/><circle cx="78.5" cy="230.5" r="9.5" transform="rotate(0,78.5,230.5)"/><path d="M 69 278v 19h 19v -9.5a 9.5 9.5, 0, 0, 0, -9.5 -9.5" transform="rotate(-90,78.5,287.5)"/><rect x="69" y="297" width="19" height="19" transform="rotate(0,78.5,306.5)"/><path d="M 88 164v 19h 19v -9.5a 9.5 9.5, 0, 0, 0, -9.5 -9.5" transform="rotate(0,97.5,173.5)"/><path d="M 88 183v 19h 19v -9.5a 9.5 9.5, 0, 0, 0, -9.5 -9.5" transform="rotate(180,97.5,192.5)"/><path d="M 88 240v 19h 19v -9.5a 9.5 9.5, 0, 0, 0, -9.5 -9.5" transform="rotate(-90,97.5,249.5)"/><rect x="88" y="259" width="19" height="19" transform="rotate(0,97.5,268.5)"/><rect x="88" y="278" width="19" height="19" transform="rotate(0,97.5,287.5)"/><rect x="88" y="297" width="19" height="19" transform="rotate(0,97.5,306.5)"/><path d="M 107 183v 19h 9.5a 9.5 9.5, 0, 0, 0, 0 -19" transform="rotate(0,116.5,192.5)"/><path d="M 107 221v 19h 9.5a 9.5 9.5, 0, 0, 0, 0 -19" transform="rotate(-90,116.5,230.5)"/><rect x="107" y="240" width="19" height="19" transform="rotate(0,116.5,249.5)"/><rect x="107" y="259" width="19" height="19" transform="rotate(0,116.5,268.5)"/><rect x="107" y="278" width="19" height="19" transform="rotate(0,116.5,287.5)"/><path d="M 107 297v 19h 19v -9.5a 9.5 9.5, 0, 0, 0, -9.5 -9.5" transform="rotate(90,116.5,306.5)"/><path d="M 126 164v 19h 9.5a 9.5 9.5, 0, 0, 0, 0 -19" transform="rotate(180,135.5,173.5)"/><circle cx="135.5" cy="211.5" r="9.5" transform="rotate(0,135.5,211.5)"/><rect x="126" y="240" width="19" height="19" transform="rotate(0,135.5,249.5)"/><rect x="126" y="278" width="19" height="19" transform="rotate(0,135.5,287.5)"/><path d="M 126 316v 19h 9.5a 9.5 9.5, 0, 0, 0, 0 -19" transform="rotate(180,135.5,325.5)"/><path d="M 145 164v 19h 19v -9.5a 9.5 9.5, 0, 0, 0, -9.5 -9.5" transform="rotate(0,154.5,173.5)"/><path d="M 145 183v 19h 9.5a 9.5 9.5, 0, 0, 0, 0 -19" transform="rotate(90,154.5,192.5)"/><path d="M 145 221v 19h 9.5a 9.5 9.5, 0, 0, 0, 0 -19" transform="rotate(-90,154.5,230.5)"/><rect x="145" y="240" width="19" height="19" transform="rotate(0,154.5,249.5)"/><rect x="145" y="259" width="19" height="19" transform="rotate(0,154.5,268.5)"/><rect x="145" y="278" width="19" height="19" transform="rotate(0,154.5,287.5)"/><rect x="145" y="316" width="19" height="19" transform="rotate(0,154.5,325.5)"/><path d="M 164 31v 19h 9.5a 9.5 9.5, 0, 0, 0, 0 -19" transform="rotate(-90,173.5,40.5)"/><path d="M 164 50v 19h 19v -9.5a 9.5 9.5, 0, 0, 0, -9.5 -9.5" transform="rotate(180,173.5,59.5)"/><path d="M 164 88v 19h 9.5a 9.5 9.5, 0, 0, 0, 0 -19" transform="rotate(180,173.5,97.5)"/><path d="M 164 126v 19h 9.5a 9.5 9.5, 0, 0, 0, 0 -19" transform="rotate(-90,173.5,135.5)"/><path d="M 164 145v 19h 19v -9.5a 9.5 9.5, 0, 0, 0, -9.5 -9.5" transform="rotate(180,173.5,154.5)"/><path d="M 164 202v 19h 9.5a 9.5 9.5, 0, 0, 0, 0 -19" transform="rotate(180,173.5,211.5)"/><rect x="164" y="240" width="19" height="19" transform="rotate(0,173.5,249.5)"/><path d="M 164 278v 19h 19v -9.5a 9.5 9.5, 0, 0, 0, -9.5 -9.5" transform="rotate(0,173.5,287.5)"/><rect x="164" y="297" width="19" height="19" transform="rotate(0,173.5,306.5)"/><path d="M 164 316v 19h 19v -9.5a 9.5 9.5, 0, 0, 0, -9.5 -9.5" transform="rotate(90,173.5,325.5)"/><path d="M 164 354v 19h 9.5a 9.5 9.5, 0, 0, 0, 0 -19" transform="rotate(180,173.5,363.5)"/><path d="M 164 392v 19h 9.5a 9.5 9.5, 0, 0, 0, 0 -19" transform="rotate(-90,173.5,401.5)"/><rect x="164" y="411" width="19" height="19" transform="rotate(0,173.5,420.5)"/><rect x="164" y="430" width="19" height="19" transform="rotate(0,173.5,439.5)"/><rect x="164" y="449" width="19" height="19" transform="rotate(0,173.5,458.5)"/><path d="M 164 468v 19h 19v -9.5a 9.5 9.5, 0, 0, 0, -9.5 -9.5" transform="rotate(180,173.5,477.5)"/><rect x="183" y="50" width="19" height="19" transform="rotate(0,192.5,59.5)"/><rect x="183" y="88" width="19" height="19" transform="rotate(0,192.5,97.5)"/><path d="M 183 107v 19h 19v -9.5a 9.5 9.5, 0, 0, 0, -9.5 -9.5" transform="rotate(180,192.5,116.5)"/><path d="M 183 145v 19h 9.5a 9.5 9.5, 0, 0, 0, 0 -19" transform="rotate(0,192.5,154.5)"/><rect x="183" y="202" width="19" height="19" transform="rotate(0,192.5,211.5)"/><rect x="183" y="221" width="19" height="19" transform="rotate(0,192.5,230.5)"/><path d="M 183 240v 19h 19v -9.5a 9.5 9.5, 0, 0, 0, -9.5 -9.5" transform="rotate(90,192.5,249.5)"/><path d="M 183 335v 19h 9.5a 9.5 9.5, 0, 0, 0, 0 -19" transform="rotate(-90,192.5,344.5)"/><rect x="183" y="354" width="19" height="19" transform="rotate(0,192.5,363.5)"/><rect x="183" y="468" width="19" height="19" transform="rotate(0,192.5,477.5)"/><rect x="202" y="50" width="19" height="19" transform="rotate(0,211.5,59.5)"/><path d="M 202 88v 19h 19v -9.5a 9.5 9.5, 0, 0, 0, -9.5 -9.5" transform="rotate(0,211.5,97.5)"/><rect x="202" y="107" width="19" height="19" transform="rotate(0,211.5,116.5)"/><path d="M 202 126v 19h 9.5a 9.5 9.5, 0, 0, 0, 0 -19" transform="rotate(90,211.5,135.5)"/><rect x="202" y="202" width="19" height="19" transform="rotate(0,211.5,211.5)"/><path d="M 202 221v 19h 19v -9.5a 9.5 9.5, 0, 0, 0, -9.5 -9.5" transform="rotate(90,211.5,230.5)"/><circle cx="211.5" cy="268.5" r="9.5" transform="rotate(0,211.5,268.5)"/><path d="M 202 316v 19h 9.5a 9.5 9.5, 0, 0, 0, 0 -19" transform="rotate(180,211.5,325.5)"/><rect x="202" y="354" width="19" height="19" transform="rotate(0,211.5,363.5)"/><circle cx="211.5" cy="401.5" r="9.5" transform="rotate(0,211.5,401.5)"/><path d="M 202 430v 19h 9.5a 9.5 9.5, 0, 0, 0, 0 -19" transform="rotate(-90,211.5,439.5)"/><rect x="202" y="449" width="19" height="19" transform="rotate(0,211.5,458.5)"/><path d="M 202 468v 19h 19v -9.5a 9.5 9.5, 0, 0, 0, -9.5 -9.5" transform="rotate(90,211.5,477.5)"/><rect x="221" y="50" width="19" height="19" transform="rotate(0,230.5,59.5)"/><rect x="221" y="107" width="19" height="19" transform="rotate(0,230.5,116.5)"/><rect x="221" y="202" width="19" height="19" transform="rotate(0,230.5,211.5)"/><path d="M 221 240v 19h 9.5a 9.5 9.5, 0, 0, 0, 0 -19" transform="rotate(180,230.5,249.5)"/><path d="M 221 297v 19h 9.5a 9.5 9.5, 0, 0, 0, 0 -19" transform="rotate(-90,230.5,306.5)"/><path d="M 221 316v 19h 19v -9.5a 9.5 9.5, 0, 0, 0, -9.5 -9.5" transform="rotate(90,230.5,325.5)"/><rect x="221" y="354" width="19" height="19" transform="rotate(0,230.5,363.5)"/><rect x="221" y="449" width="19" height="19" transform="rotate(0,230.5,458.5)"/><path d="M 240 31v 19h 19v -9.5a 9.5 9.5, 0, 0, 0, -9.5 -9.5" transform="rotate(-90,249.5,40.5)"/><path d="M 240 50v 19h 19v -9.5a 9.5 9.5, 0, 0, 0, -9.5 -9.5" transform="rotate(90,249.5,59.5)"/><path d="M 240 107v 19h 19v -9.5a 9.5 9.5, 0, 0, 0, -9.5 -9.5" transform="rotate(0,249.5,116.5)"/><path d="M 240 126v 19h 9.5a 9.5 9.5, 0, 0, 0, 0 -19" transform="rotate(90,249.5,135.5)"/><circle cx="249.5" cy="173.5" r="9.5" transform="rotate(0,249.5,173.5)"/><path d="M 240 202v 19h 19v -9.5a 9.5 9.5, 0, 0, 0, -9.5 -9.5" transform="rotate(0,249.5,211.5)"/><rect x="240" y="221" width="19" height="19" transform="rotate(0,249.5,230.5)"/><rect x="240" y="240" width="19" height="19" transform="rotate(0,249.5,249.5)"/><path d="M 240 335v 19h 19v -9.5a 9.5 9.5, 0, 0, 0, -9.5 -9.5" transform="rotate(-90,249.5,344.5)"/><rect x="240" y="354" width="19" height="19" transform="rotate(0,249.5,363.5)"/><path d="M 240 411v 19h 9.5a 9.5 9.5, 0, 0, 0, 0 -19" transform="rotate(180,249.5,420.5)"/><path d="M 240 449v 19h 19v -9.5a 9.5 9.5, 0, 0, 0, -9.5 -9.5" transform="rotate(0,249.5,458.5)"/><path d="M 240 468v 19h 19v -9.5a 9.5 9.5, 0, 0, 0, -9.5 -9.5" transform="rotate(180,249.5,477.5)"/><path d="M 259 31v 19h 9.5a 9.5 9.5, 0, 0, 0, 0 -19" transform="rotate(0,268.5,40.5)"/><path d="M 259 69v 19h 19v -9.5a 9.5 9.5, 0, 0, 0, -9.5 -9.5" transform="rotate(-90,268.5,78.5)"/><path d="M 259 88v 19h 9.5a 9.5 9.5, 0, 0, 0, 0 -19" transform="rotate(90,268.5,97.5)"/><path d="M 259 221v 19h 19v -9.5a 9.5 9.5, 0, 0, 0, -9.5 -9.5" transform="rotate(0,268.5,230.5)"/><rect x="259" y="240" width="19" height="19" transform="rotate(0,268.5,249.5)"/><path d="M 259 259v 19h 9.5a 9.5 9.5, 0, 0, 0, 0 -19" transform="rotate(90,268.5,268.5)"/><path d="M 259 316v 19h 19v -9.5a 9.5 9.5, 0, 0, 0, -9.5 -9.5" transform="rotate(-90,268.5,325.5)"/><rect x="259" y="335" width="19" height="19" transform="rotate(0,268.5,344.5)"/><rect x="259" y="354" width="19" height="19" transform="rotate(0,268.5,363.5)"/><path d="M 259 411v 19h 9.5a 9.5 9.5, 0, 0, 0, 0 -19" transform="rotate(0,268.5,420.5)"/><rect x="259" y="468" width="19" height="19" transform="rotate(0,268.5,477.5)"/><circle cx="287.5" cy="21.5" r="9.5" transform="rotate(0,287.5,21.5)"/><rect x="278" y="69" width="19" height="19" transform="rotate(0,287.5,78.5)"/><circle cx="287.5" cy="135.5" r="9.5" transform="rotate(0,287.5,135.5)"/><path d="M 278 183v 19h 19v -9.5a 9.5 9.5, 0, 0, 0, -9.5 -9.5" transform="rotate(-90,287.5,192.5)"/><path d="M 278 202v 19h 19v -9.5a 9.5 9.5, 0, 0, 0, -9.5 -9.5" transform="rotate(180,287.5,211.5)"/><rect x="278" y="240" width="19" height="19" transform="rotate(0,287.5,249.5)"/><circle cx="287.5" cy="287.5" r="9.5" transform="rotate(0,287.5,287.5)"/><rect x="278" y="316" width="19" height="19" transform="rotate(0,287.5,325.5)"/><rect x="278" y="354" width="19" height="19" transform="rotate(0,287.5,363.5)"/><path d="M 278 373v 19h 9.5a 9.5 9.5, 0, 0, 0, 0 -19" transform="rotate(90,287.5,382.5)"/><path d="M 278 430v 19h 9.5a 9.5 9.5, 0, 0, 0, 0 -19" transform="rotate(-90,287.5,439.5)"/><rect x="278" y="449" width="19" height="19" transform="rotate(0,287.5,458.5)"/><path d="M 278 468v 19h 19v -9.5a 9.5 9.5, 0, 0, 0, -9.5 -9.5" transform="rotate(90,287.5,477.5)"/><circle cx="306.5" cy="40.5" r="9.5" transform="rotate(0,306.5,40.5)"/><path d="M 297 69v 19h 19v -9.5a 9.5 9.5, 0, 0, 0, -9.5 -9.5" transform="rotate(0,306.5,78.5)"/><rect x="297" y="88" width="19" height="19" transform="rotate(0,306.5,97.5)"/><path d="M 297 107v 19h 9.5a 9.5 9.5, 0, 0, 0, 0 -19" transform="rotate(90,306.5,116.5)"/><path d="M 297 183v 19h 19v -9.5a 9.5 9.5, 0, 0, 0, -9.5 -9.5" transform="rotate(0,306.5,192.5)"/><path d="M 297 202v 19h 19v -9.5a 9.5 9.5, 0, 0, 0, -9.5 -9.5" transform="rotate(90,306.5,211.5)"/><path d="M 297 240v 19h 19v -9.5a 9.5 9.5, 0, 0, 0, -9.5 -9.5" transform="rotate(0,306.5,249.5)"/><path d="M 297 259v 19h 19v -9.5a 9.5 9.5, 0, 0, 0, -9.5 -9.5" transform="rotate(180,306.5,268.5)"/><rect x="297" y="316" width="19" height="19" transform="rotate(0,306.5,325.5)"/><rect x="297" y="335" width="19" height="19" transform="rotate(0,306.5,344.5)"/><rect x="297" y="354" width="19" height="19" transform="rotate(0,306.5,363.5)"/><path d="M 297 392v 19h 9.5a 9.5 9.5, 0, 0, 0, 0 -19" transform="rotate(180,306.5,401.5)"/><path d="M 297 449v 19h 9.5a 9.5 9.5, 0, 0, 0, 0 -19" transform="rotate(0,306.5,458.5)"/><circle cx="325.5" cy="21.5" r="9.5" transform="rotate(0,325.5,21.5)"/><path d="M 316 88v 19h 9.5a 9.5 9.5, 0, 0, 0, 0 -19" transform="rotate(0,325.5,97.5)"/><circle cx="325.5" cy="135.5" r="9.5" transform="rotate(0,325.5,135.5)"/><path d="M 316 164v 19h 9.5a 9.5 9.5, 0, 0, 0, 0 -19" transform="rotate(180,325.5,173.5)"/><path d="M 316 259v 19h 19v -9.5a 9.5 9.5, 0, 0, 0, -9.5 -9.5" transform="rotate(0,325.5,268.5)"/><rect x="316" y="278" width="19" height="19" transform="rotate(0,325.5,287.5)"/><rect x="316" y="297" width="19" height="19" transform="rotate(0,325.5,306.5)"/><rect x="316" y="316" width="19" height="19" transform="rotate(0,325.5,325.5)"/><rect x="316" y="335" width="19" height="19" transform="rotate(0,325.5,344.5)"/><rect x="316" y="354" width="19" height="19" transform="rotate(0,325.5,363.5)"/><rect x="316" y="373" width="19" height="19" transform="rotate(0,325.5,382.5)"/><rect x="316" y="392" width="19" height="19" transform="rotate(0,325.5,401.5)"/><path d="M 316 411v 19h 19v -9.5a 9.5 9.5, 0, 0, 0, -9.5 -9.5" transform="rotate(180,325.5,420.5)"/><rect x="335" y="164" width="19" height="19" transform="rotate(0,344.5,173.5)"/><path d="M 335 183v 19h 9.5a 9.5 9.5, 0, 0, 0, 0 -19" transform="rotate(90,344.5,192.5)"/><path d="M 335 221v 19h 9.5a 9.5 9.5, 0, 0, 0, 0 -19" transform="rotate(-90,344.5,230.5)"/><path d="M 335 240v 19h 9.5a 9.5 9.5, 0, 0, 0, 0 -19" transform="rotate(90,344.5,249.5)"/><path d="M 335 278v 19h 19v -9.5a 9.5 9.5, 0, 0, 0, -9.5 -9.5" transform="rotate(0,344.5,287.5)"/><rect x="335" y="297" width="19" height="19" transform="rotate(0,344.5,306.5)"/><rect x="335" y="316" width="19" height="19" transform="rotate(0,344.5,325.5)"/><rect x="335" y="392" width="19" height="19" transform="rotate(0,344.5,401.5)"/><rect x="335" y="411" width="19" height="19" transform="rotate(0,344.5,420.5)"/><path d="M 335 449v 19h 19v -9.5a 9.5 9.5, 0, 0, 0, -9.5 -9.5" transform="rotate(-90,344.5,458.5)"/><path d="M 335 468v 19h 19v -9.5a 9.5 9.5, 0, 0, 0, -9.5 -9.5" transform="rotate(180,344.5,477.5)"/><path d="M 354 164v 19h 9.5a 9.5 9.5, 0, 0, 0, 0 -19" transform="rotate(0,363.5,173.5)"/><path d="M 354 297v 19h 19v -9.5a 9.5 9.5, 0, 0, 0, -9.5 -9.5" transform="rotate(0,363.5,306.5)"/><rect x="354" y="316" width="19" height="19" transform="rotate(0,363.5,325.5)"/><circle cx="363.5" cy="363.5" r="9.5" transform="rotate(0,363.5,363.5)"/><rect x="354" y="392" width="19" height="19" transform="rotate(0,363.5,401.5)"/><rect x="354" y="411" width="19" height="19" transform="rotate(0,363.5,420.5)"/><path d="M 354 449v 19h 19v -9.5a 9.5 9.5, 0, 0, 0, -9.5 -9.5" transform="rotate(0,363.5,458.5)"/><rect x="354" y="468" width="19" height="19" transform="rotate(0,363.5,477.5)"/><path d="M 373 183v 19h 19v -9.5a 9.5 9.5, 0, 0, 0, -9.5 -9.5" transform="rotate(-90,382.5,192.5)"/><path d="M 373 202v 19h 19v -9.5a 9.5 9.5, 0, 0, 0, -9.5 -9.5" transform="rotate(180,382.5,211.5)"/><path d="M 373 259v 19h 9.5a 9.5 9.5, 0, 0, 0, 0 -19" transform="rotate(-90,382.5,268.5)"/><path d="M 373 278v 19h 9.5a 9.5 9.5, 0, 0, 0, 0 -19" transform="rotate(90,382.5,287.5)"/><rect x="373" y="316" width="19" height="19" transform="rotate(0,382.5,325.5)"/><rect x="373" y="392" width="19" height="19" transform="rotate(0,382.5,401.5)"/><rect x="373" y="411" width="19" height="19" transform="rotate(0,382.5,420.5)"/><rect x="373" y="468" width="19" height="19" transform="rotate(0,382.5,477.5)"/><path d="M 392 164v 19h 9.5a 9.5 9.5, 0, 0, 0, 0 -19" transform="rotate(-90,401.5,173.5)"/><rect x="392" y="183" width="19" height="19" transform="rotate(0,401.5,192.5)"/><path d="M 392 202v 19h 19v -9.5a 9.5 9.5, 0, 0, 0, -9.5 -9.5" transform="rotate(90,401.5,211.5)"/><path d="M 392 240v 19h 9.5a 9.5 9.5, 0, 0, 0, 0 -19" transform="rotate(180,401.5,249.5)"/><path d="M 392 316v 19h 19v -9.5a 9.5 9.5, 0, 0, 0, -9.5 -9.5" transform="rotate(0,401.5,325.5)"/><rect x="392" y="335" width="19" height="19" transform="rotate(0,401.5,344.5)"/><rect x="392" y="354" width="19" height="19" transform="rotate(0,401.5,363.5)"/><rect x="392" y="373" width="19" height="19" transform="rotate(0,401.5,382.5)"/><rect x="392" y="392" width="19" height="19" transform="rotate(0,401.5,401.5)"/><rect x="392" y="411" width="19" height="19" transform="rotate(0,401.5,420.5)"/><path d="M 392 468v 19h 9.5a 9.5 9.5, 0, 0, 0, 0 -19" transform="rotate(0,401.5,477.5)"/><rect x="411" y="183" width="19" height="19" transform="rotate(0,420.5,192.5)"/><path d="M 411 221v 19h 9.5a 9.5 9.5, 0, 0, 0, 0 -19" transform="rotate(-90,420.5,230.5)"/><rect x="411" y="240" width="19" height="19" transform="rotate(0,420.5,249.5)"/><rect x="411" y="259" width="19" height="19" transform="rotate(0,420.5,268.5)"/><path d="M 411 278v 19h 19v -9.5a 9.5 9.5, 0, 0, 0, -9.5 -9.5" transform="rotate(180,420.5,287.5)"/><path d="M 411 373v 19h 19v -9.5a 9.5 9.5, 0, 0, 0, -9.5 -9.5" transform="rotate(0,420.5,382.5)"/><rect x="411" y="392" width="19" height="19" transform="rotate(0,420.5,401.5)"/><rect x="411" y="411" width="19" height="19" transform="rotate(0,420.5,420.5)"/><path d="M 411 430v 19h 9.5a 9.5 9.5, 0, 0, 0, 0 -19" transform="rotate(90,420.5,439.5)"/><path d="M 430 164v 19h 19v -9.5a 9.5 9.5, 0, 0, 0, -9.5 -9.5" transform="rotate(-90,439.5,173.5)"/><rect x="430" y="183" width="19" height="19" transform="rotate(0,439.5,192.5)"/><path d="M 430 202v 19h 9.5a 9.5 9.5, 0, 0, 0, 0 -19" transform="rotate(90,439.5,211.5)"/><path d="M 430 259v 19h 19v -9.5a 9.5 9.5, 0, 0, 0, -9.5 -9.5" transform="rotate(0,439.5,268.5)"/><rect x="430" y="278" width="19" height="19" transform="rotate(0,439.5,287.5)"/><rect x="430" y="297" width="19" height="19" transform="rotate(0,439.5,306.5)"/><rect x="430" y="316" width="19" height="19" transform="rotate(0,439.5,325.5)"/><path d="M 430 335v 19h 19v -9.5a 9.5 9.5, 0, 0, 0, -9.5 -9.5" transform="rotate(180,439.5,344.5)"/><rect x="430" y="392" width="19" height="19" transform="rotate(0,439.5,401.5)"/><circle cx="439.5" cy="477.5" r="9.5" transform="rotate(0,439.5,477.5)"/><path d="M 449 164v 19h 19v -9.5a 9.5 9.5, 0, 0, 0, -9.5 -9.5" transform="rotate(0,458.5,173.5)"/><rect x="449" y="183" width="19" height="19" transform="rotate(0,458.5,192.5)"/><path d="M 449 240v 19h 9.5a 9.5 9.5, 0, 0, 0, 0 -19" transform="rotate(180,458.5,249.5)"/><rect x="449" y="278" width="19" height="19" transform="rotate(0,458.5,287.5)"/><rect x="449" y="297" width="19" height="19" transform="rotate(0,458.5,306.5)"/><rect x="449" y="316" width="19" height="19" transform="rotate(0,458.5,325.5)"/><path d="M 449 335v 19h 19v -9.5a 9.5 9.5, 0, 0, 0, -9.5 -9.5" transform="rotate(90,458.5,344.5)"/><path d="M 449 392v 19h 19v -9.5a 9.5 9.5, 0, 0, 0, -9.5 -9.5" transform="rotate(0,458.5,401.5)"/><path d="M 449 411v 19h 9.5a 9.5 9.5, 0, 0, 0, 0 -19" transform="rotate(90,458.5,420.5)"/><path d="M 449 449v 19h 9.5a 9.5 9.5, 0, 0, 0, 0 -19" transform="rotate(180,458.5,458.5)"/><path d="M 468 183v 19h 9.5a 9.5 9.5, 0, 0, 0, 0 -19" transform="rotate(0,477.5,192.5)"/><path d="M 468 240v 19h 9.5a 9.5 9.5, 0, 0, 0, 0 -19" transform="rotate(0,477.5,249.5)"/><path d="M 468 278v 19h 19v -9.5a 9.5 9.5, 0, 0, 0, -9.5 -9.5" transform="rotate(0,477.5,287.5)"/><rect x="468" y="297" width="19" height="19" transform="rotate(0,477.5,306.5)"/><path d="M 468 316v 19h 19v -9.5a 9.5 9.5, 0, 0, 0, -9.5 -9.5" transform="rotate(90,477.5,325.5)"/><circle cx="477.5" cy="382.5" r="9.5" transform="rotate(0,477.5,382.5)"/><path d="M 468 449v 19h 19v -9.5a 9.5 9.5, 0, 0, 0, -9.5 -9.5" transform="rotate(0,477.5,458.5)"/><path d="M 468 468v 19h 9.5a 9.5 9.5, 0, 0, 0, 0 -19" transform="rotate(90,477.5,477.5)"/><path clip-rule="evenodd" d="M 12 59.5v 38a 47.5 47.5, 0, 0, 0, 47.5 47.5h 38a 47.5 47.5, 0, 0, 0, 47.5 -47.5v -38a 47.5 47.5, 0, 0, 0, -47.5 -47.5h -38a 47.5 47.5, 0, 0, 0, -47.5 47.5M 59.5 31h 38a 28.5 28.5, 0, 0, 1, 28.5 28.5v 38a 28.5 28.5, 0, 0, 1, -28.5 28.5h -38a 28.5 28.5, 0, 0, 1, -28.5 -28.5v -38a 28.5 28.5, 0, 0, 1, 28.5 -28.5" transform="rotate(0,78.5,78.5)"/><circle cx="78.5" cy="78.5" r="28.5" transform="rotate(0,78.5,78.5)"/><path clip-rule="evenodd" d="M 354 59.5v 38a 47.5 47.5, 0, 0, 0, 47.5 47.5h 38a 47.5 47.5, 0, 0, 0, 47.5 -47.5v -38a 47.5 47.5, 0, 0, 0, -47.5 -47.5h -38a 47.5 47.5, 0, 0, 0, -47.5 47.5M 401.5 31h 38a 28.5 28.5, 0, 0, 1, 28.5 28.5v 38a 28.5 28.5, 0, 0, 1, -28.5 28.5h -38a 28.5 28.5, 0, 0, 1, -28.5 -28.5v -38a 28.5 28.5, 0, 0, 1, 28.5 -28.5" transform="rotate(90,420.5,78.5)"/><circle cx="420.5" cy="78.5" r="28.5" transform="rotate(90,420.5,78.5)"/><path clip-rule="evenodd" d="M 12 401.5v 38a 47.5 47.5, 0, 0, 0, 47.5 47.5h 38a 47.5 47.5, 0, 0, 0, 47.5 -47.5v -38a 47.5 47.5, 0, 0, 0, -47.5 -47.5h -38a 47.5 47.5, 0, 0, 0, -47.5 47.5M 59.5 373h 38a 28.5 28.5, 0, 0, 1, 28.5 28.5v 38a 28.5 28.5, 0, 0, 1, -28.5 28.5h -38a 28.5 28.5, 0, 0, 1, -28.5 -28.5v -38a 28.5 28.5, 0, 0, 1, 28.5 -28.5" transform="rotate(-90,78.5,420.5)"/><circle cx="78.5" cy="420.5" r="28.5" transform="rotate(-90,78.5,420.5)"/></clipPath></defs><rect x="0" y="0" height="500" width="500" clip-path="url('#clip-path-background-color')" fill="#fff"/><rect x="0" y="0" height="500" width="500" clip-path="url('#clip-path-dot-color')" fill="#000000"/></svg>